<svg xmlns="http://www.w3.org/2000/svg" width="14" height="18" viewBox="0 0 14 18" fill="none">
    <path fill="#E21E32" d="M12.4 8.2C12.2 7.9 11.9 7.6 11.6 7.4C10.9 6.8 10.2 6.4 9.59997 5.7C8.19997 4.3 7.89997 1.8 8.79997 0C7.89997 0.2 6.99997 0.8 6.29997 1.3C3.79997 3.4 2.79997 7.1 3.99997 10.2C3.99997 10.3 4.09997 10.4 4.09997 10.5C4.09997 10.7 3.99997 10.9 3.79997 11C3.59997 11.1 3.29997 11 3.19997 10.9C2.99997 10.9 2.99997 10.8 2.89997 10.8C1.79997 9.3 1.69997 7.3 2.39997 5.6C0.79997 7 -0.10003 9.3 -3.04314e-05 11.5C-3.04314e-05 12 0.0999696 12.5 0.29997 13C0.39997 13.6 0.69997 14.2 0.99997 14.7C1.99997 16.4 3.89997 17.7 5.79997 17.9C7.89997 18.2 10.1 17.8 11.8 16.3C13.6 14.6 14.2 12 13.3 9.7L13.2 9.4C13 9 12.7 8.6 12.4 8.2ZM9.29997 14.5C8.99997 14.7 8.59997 15 8.19997 15.1C7.09997 15.5 5.99997 14.9 5.29997 14.3C6.49997 14 7.19997 13.1 7.39997 12.2C7.59997 11.4 7.29997 10.7 7.09997 10C7.09997 9.3 7.09997 8.6 7.39997 7.9C7.49997 8.3 7.69997 8.7 7.99997 9C8.79997 10 9.89997 10.4 10.2 11.8C10.2 11.9 10.3 12.1 10.3 12.2C10.3 13 9.89997 14 9.29997 14.5Z"/>
</svg>