<svg width="22" height="20" viewBox="0 0 22 20" fill="none" xmlns="http://www.w3.org/2000/svg">
<g clip-path="url(#clip0)">
<path d="M22 18H0V20H22V18Z" fill="#A3AAB5"/>
<path fill-rule="evenodd" clip-rule="evenodd" d="M22 10V11V12V17H20V12L18 12V17H16V12V11V10H22Z" fill="#A3AAB5"/>
<path d="M2 10H0V17H2V10Z" fill="#A3AAB5"/>
<path d="M7 10H5V17H7V10Z" fill="#A3AAB5"/>
<path d="M0.800049 11.6L2.00005 10L4.80005 11.9L3.50005 13.6L0.800049 11.6Z" fill="#A3AAB5"/>
<path d="M3.49995 13.6L2.19995 12L4.99995 10L6.29995 11.6L3.49995 13.6Z" fill="#A3AAB5"/>
<path d="M11.6221 17.1953C13.4531 17.1953 14.791 16.0283 14.8984 14.3535H12.8965C12.7695 15.0566 12.2812 15.4961 11.627 15.4961C10.7676 15.4961 10.2354 14.7441 10.2354 13.4697C10.2354 12.21 10.7725 11.458 11.6221 11.458C12.2764 11.458 12.7695 11.9023 12.8867 12.5908H14.8887C14.7764 10.9453 13.4092 9.75879 11.6221 9.75879C9.46875 9.75879 8.12598 11.1504 8.12598 13.4746C8.12598 15.7988 9.46387 17.1953 11.6221 17.1953Z" fill="#A3AAB5"/>
<path d="M20.3001 6.99998L11.2001 1.69998C11.2001 1.69998 11.2001 1.69998 11.1001 1.69998C11.0001 1.59998 10.9001 1.59998 10.8001 1.59998C10.7001 1.59998 10.6001 1.59998 10.4001 1.59998C10.3001 1.59998 10.2001 1.59998 10.2001 1.69998L1.0001 6.69998C0.400102 6.99998 0.300102 7.59998 0.500102 8.09998C0.700102 8.49998 1.0001 8.59998 1.4001 8.59998C1.6001 8.59998 1.7001 8.59998 1.9001 8.49998L10.6001 3.69998L19.3001 8.69998C19.5001 8.79998 19.6001 8.79998 19.8001 8.79998C20.1001 8.79998 20.5001 8.59998 20.7001 8.29998C20.9001 7.89998 20.8001 7.29998 20.3001 6.99998Z" fill="#A3AAB5"/>
</g>
<defs>
<clipPath id="clip0">
<rect width="22" height="20" fill="white"/>
</clipPath>
</defs>
</svg>
